<svg width="34" height="34" viewBox="0 0 34 34" fill="none" xmlns="http://www.w3.org/2000/svg">
<path id="alterar-img" fill-rule="evenodd" clip-rule="evenodd" d="M25.5159 4.63351C26.0725 4.07428 26.8168 3.7714 27.585 3.7915C28.3532 3.8116 29.0824 4.15304 29.6121 4.7407C30.1418 5.32835 30.4287 6.1141 30.4097 6.92507C30.3906 7.73604 30.0672 8.50581 29.5106 9.06505L10.2383 28.4738C9.83011 28.8848 9.29825 29.1506 8.72441 29.2302C6.77539 29.5005 5.22375 27.6244 5.855 25.7608L6.31858 24.3921C6.49248 23.8787 6.78202 23.4121 7.16486 23.0284L25.5141 4.63541L25.5159 4.63351ZM32.2096 2.1256C31.0236 0.811379 29.392 0.0476839 27.6731 0.00215799C25.9542 -0.0433679 24.2884 0.632996 23.0414 1.88278L3.79401 21.1721C3.58998 21.3765 3.43426 21.6286 3.33937 21.9081L0.104812 31.4636C0.00120482 31.7697 -0.0261796 32.0987 0.0252855 32.4192C0.0767505 32.7396 0.205339 33.0407 0.398719 33.2936C0.592099 33.5465 0.843784 33.7427 1.12964 33.8634C1.41549 33.9841 1.72593 34.0253 2.03117 33.9829L10.6567 32.7878C11.0345 32.7358 11.3869 32.5585 11.663 32.2813L31.9886 11.812C33.2342 10.5581 33.957 8.83319 33.9981 7.01672C34.0393 5.20024 33.3971 3.4409 32.2096 2.1256ZM19.7691 30.2059C19.2926 30.2059 18.8355 30.4058 18.4985 30.7615C18.1615 31.1173 17.9722 31.5998 17.9722 32.1029C17.9722 32.6061 18.1615 33.0886 18.4985 33.4444C18.8355 33.8001 19.2926 34 19.7691 34H30.551C31.0276 34 31.4847 33.8001 31.8217 33.4444C32.1587 33.0886 32.348 32.6061 32.348 32.1029C32.348 31.5998 32.1587 31.1173 31.8217 30.7615C31.4847 30.4058 31.0276 30.2059 30.551 30.2059H19.7691Z" fill="#666666"/>
</svg>
