<svg width="40" height="40" viewBox="0 0 40 40" fill="none" xmlns="http://www.w3.org/2000/svg">
<g id="filtro-img">
<g id="SVGRepo_iconCarrier">
<path id="primary-stroke" d="M35 8.33325L11.6667 8.33325M28.3333 19.9999H5M16.6667 31.6666L5 31.6666M23.3333 31.6666H35" stroke="#666666" stroke-width="3" stroke-linecap="round" stroke-linejoin="round"/>
<path id="secondary-stroke" d="M8.33333 11.6667C7.67406 11.6667 7.02959 11.4712 6.48143 11.1049C5.93327 10.7386 5.50603 10.218 5.25373 9.60895C5.00144 8.99986 4.93543 8.32964 5.06405 7.68303C5.19267 7.03643 5.51013 6.44249 5.97631 5.97631C6.44248 5.51014 7.03643 5.19267 7.68303 5.06405C8.32963 4.93543 8.99986 5.00144 9.60895 5.25374C10.218 5.50603 10.7386 5.93327 11.1049 6.48143C11.4712 7.0296 11.6667 7.67406 11.6667 8.33333C11.6667 9.21739 11.3155 10.0652 10.6904 10.6904C10.0652 11.3155 9.21739 11.6667 8.33333 11.6667ZM35 20C35 19.3407 34.8045 18.6963 34.4382 18.1481C34.072 17.5999 33.5514 17.1727 32.9423 16.9204C32.3332 16.6681 31.663 16.6021 31.0164 16.7307C30.3698 16.8593 29.7758 17.1768 29.3096 17.643C28.8435 18.1092 28.526 18.7031 28.3974 19.3497C28.2688 19.9963 28.3348 20.6665 28.5871 21.2756C28.8394 21.8847 29.2666 22.4053 29.8148 22.7716C30.3629 23.1378 31.0074 23.3333 31.6667 23.3333C32.5507 23.3333 33.3986 22.9821 34.0237 22.357C34.6488 21.7319 35 20.8841 35 20ZM23.3333 31.6667C23.3333 31.0074 23.1378 30.3629 22.7716 29.8148C22.4053 29.2666 21.8847 28.8394 21.2756 28.5871C20.6665 28.3348 19.9963 28.2688 19.3497 28.3974C18.7031 28.526 18.1092 28.8435 17.643 29.3096C17.1768 29.7758 16.8593 30.3698 16.7307 31.0164C16.6021 31.663 16.6681 32.3332 16.9204 32.9423C17.1727 33.5514 17.5999 34.072 18.1481 34.4382C18.6963 34.8045 19.3407 35 20 35C20.8841 35 21.7319 34.6488 22.357 34.0237C22.9821 33.3986 23.3333 32.5507 23.3333 31.6667Z" stroke="#666666" stroke-width="3" stroke-linecap="round" stroke-linejoin="round"/>
</g>
</g>
</svg>
