<svg width="49" height="31" viewBox="0 0 49 31" fill="none" xmlns="http://www.w3.org/2000/svg">
<path d="M49 9V25.5C49 28.5333 46.5111 31 43.4444 31H6.55555C5.45099 31 4.55556 30.1046 4.55556 29V24.75C4.55556 23.6454 5.45099 22.75 6.55556 22.75H38.6667C39.7712 22.75 40.6667 21.8546 40.6667 20.75V13.75C40.6667 12.6454 39.7712 11.75 38.6667 11.75H11.8356C10.8832 11.75 10.1111 12.5221 10.1111 13.4745C10.1111 14.9521 8.37428 15.7455 7.25744 14.778L0.745095 9.13669C-0.175569 8.33916 -0.175568 6.91084 0.745096 6.11331L7.25744 0.47199C8.37428 -0.49547 10.1111 0.297868 10.1111 1.77547C10.1111 2.7279 10.8832 3.5 11.8356 3.5H43.4444C44.9179 3.5 46.3309 4.07946 47.3728 5.11091C48.4147 6.14236 49 7.54131 49 9Z" fill="#03318C"/>
</svg>
