<svg width="34" height="34" viewBox="0 0 34 34" fill="none" xmlns="http://www.w3.org/2000/svg">
<g id="Arrow" clip-path="url(#clip0_255_100)">
<g id="Group">
<path id="Vector" d="M17 34C26.3888 34 34 26.3888 34 17C34 7.61116 26.3888 0 17 0C7.61116 0 0 7.61116 0 17C0 26.3888 7.61116 34 17 34Z" fill="#0460D9"/>
<path id="Vector_2" fill-rule="evenodd" clip-rule="evenodd" d="M23.2194 32.8177C23.7267 32.6194 24.2242 32.3969 24.7102 32.1508C25.2152 31.8935 25.7071 31.6112 26.1839 31.3047C26.6608 30.9989 27.1222 30.6694 27.5662 30.3174C28.0105 29.965 28.4369 29.5905 28.8438 29.1954C29.2505 28.8005 29.6372 28.3854 30.0024 27.9518C30.2856 27.6077 30.5552 27.2526 30.8106 26.8874L20.9231 16.9999L13.9923 10.4614L13.0769 11.3245L18.9184 17.166L13.0769 22.6753L23.2194 32.8177Z" fill="#03318C"/>
<path id="Vector_3" fill-rule="evenodd" clip-rule="evenodd" d="M20.9221 17.0032L13.9911 10.4629L13.0763 11.3275L19.091 17.0032L13.0763 22.6778L13.9911 23.5409L20.9221 17.0032Z" fill="white"/>
</g>
</g>
<defs>
<clipPath id="clip0_255_100">
<rect width="34" height="34" fill="white"/>
</clipPath>
</defs>
</svg>
