<svg width="75" height="75" viewBox="0 0 75 75" fill="none" xmlns="http://www.w3.org/2000/svg">
<g id="User">
<path id="Vector" d="M75 32V48.5C75 51.5333 72.5111 54 69.4444 54H32.5556C31.451 54 30.5556 53.1046 30.5556 52V47.75C30.5556 46.6454 31.451 45.75 32.5556 45.75H64.6667C65.7712 45.75 66.6667 44.8546 66.6667 43.75V36.75C66.6667 35.6454 65.7712 34.75 64.6667 34.75H37.8356C36.8832 34.75 36.1111 35.5221 36.1111 36.4745C36.1111 37.9521 34.3743 38.7455 33.2574 37.778L26.7451 32.1367C25.8244 31.3392 25.8244 29.9108 26.7451 29.1133L33.2574 23.472C34.3743 22.5045 36.1111 23.2979 36.1111 24.7755C36.1111 25.7279 36.8832 26.5 37.8356 26.5H69.4444C70.9179 26.5 72.3309 27.0795 73.3728 28.1109C74.4147 29.1424 75 30.5413 75 32Z" fill="white"/>
</g>
</svg>
