<svg width="75" height="75" viewBox="0 0 75 75" fill="none" xmlns="http://www.w3.org/2000/svg">
<path d="M38 71.0001C56.7777 71.0001 72 55.7778 72 37.0001C72 18.2224 56.7777 3 38 3C19.2223 3 4 18.2224 4 37.0001C4 55.7778 19.2223 71.0001 38 71.0001Z" fill="#0460D9"/>
<path fill-rule="evenodd" clip-rule="evenodd" d="M40.737 70.8725C41.7564 70.7956 42.7717 70.6727 43.78 70.5042C44.8967 70.3117 46.0031 70.0635 47.095 69.7605C48.1874 69.4575 49.264 69.1 50.3207 68.6895C51.3774 68.2787 52.4129 67.8153 53.4232 67.3011C54.433 66.7868 55.4165 66.2222 56.3699 65.6096C57.3235 64.9978 58.246 64.3387 59.1338 63.6348C60.0221 62.9299 60.8746 62.1809 61.6881 61.3908C62.5007 60.6007 63.2732 59.7704 64.0029 58.9031C64.7342 58.0361 65.4217 57.133 66.0627 56.1973C66.7028 55.2618 67.2957 54.2949 67.8392 53.3002C68.382 52.3054 68.8747 51.2842 69.3154 50.2402C69.5972 49.5407 69.8557 48.8319 70.0903 48.1152L43.4598 21.4819L43.4485 21.4719C43.2764 21.2993 43.0962 21.1348 42.9087 20.979L42.8974 20.9719C42.7054 20.8137 42.5059 20.6647 42.2996 20.5256C42.1537 20.4265 41.9992 20.3386 41.8462 20.2494C41.7839 20.2125 41.7244 20.17 41.6607 20.136C41.4427 20.0171 41.2191 19.9089 40.9906 19.8116L40.9849 19.8088C40.7554 19.711 40.5174 19.6246 40.2766 19.5495C40.1349 19.5042 39.9833 19.4716 39.8374 19.4362C39.2276 19.2809 38.601 19.2009 37.9717 19.1982C33.6919 19.1982 30.2083 22.696 30.2083 26.9899C30.2083 27.2576 30.2225 27.5225 30.2508 27.7832V27.786C30.2763 28.0467 30.3146 28.306 30.3656 28.5581C30.384 28.646 30.4109 28.731 30.4322 28.8188C30.4718 28.9803 30.5072 29.1446 30.5568 29.3019L30.5597 29.3075C30.6347 29.5484 30.7226 29.7892 30.8203 30.0187L30.8232 30.0244C30.9209 30.2553 31.0272 30.4805 31.1462 30.7001L31.1518 30.7086C31.2708 30.9268 31.4012 31.1393 31.5386 31.3447C31.574 31.3957 31.6137 31.4439 31.6505 31.4935C31.7582 31.6465 31.8658 31.798 31.9848 31.9425L31.9933 31.951C32.1506 32.1423 32.3163 32.325 32.4906 32.5007L32.4962 32.5064L36.1881 36.1982H33.75C27.8737 36.1982 23.125 40.9695 23.125 46.8643V53.262C23.125 53.4498 23.1996 53.63 23.3325 53.7628C23.4653 53.8957 23.6455 53.9703 23.8333 53.9703L40.737 70.8725Z" fill="#03318C"/>
<path fill-rule="evenodd" clip-rule="evenodd" d="M37.9717 19.1982C33.6919 19.1982 30.2083 22.696 30.2083 26.9899C30.2083 31.2824 33.6919 34.7815 37.9717 34.7815C42.2528 34.7815 45.735 31.2824 45.735 26.9899C45.7364 22.696 42.2528 19.1982 37.9717 19.1982ZM37.9717 20.6149C41.485 20.6149 44.3197 23.4581 44.3183 26.9899C44.3183 30.5202 41.485 33.3649 37.9717 33.3649C37.136 33.3643 36.3086 33.1988 35.537 32.8779C34.7654 32.557 34.0647 32.0869 33.4751 31.4947C32.8855 30.9025 32.4186 30.1997 32.1011 29.4267C31.7836 28.6536 31.6218 27.8255 31.625 26.9899C31.625 23.4581 34.4597 20.6149 37.9717 20.6149ZM33.75 36.1982C27.8737 36.1982 23.125 40.9695 23.125 46.8643V53.262C23.125 53.4498 23.1996 53.63 23.3325 53.7628C23.4653 53.8957 23.6455 53.9703 23.8333 53.9703H29.2932C29.428 54.0114 29.572 54.0114 29.7068 53.9703H46.2932C46.428 54.0114 46.572 54.0114 46.7068 53.9703H52.1667C52.3545 53.9703 52.5347 53.8957 52.6675 53.7628C52.8004 53.63 52.875 53.4498 52.875 53.262V46.8643C52.875 40.9695 48.1263 36.1968 42.25 36.1968L33.75 36.1982ZM33.75 37.6149H42.25C47.3627 37.6149 51.4583 41.726 51.4583 46.8643V52.5536H47.2083V46.853C47.2095 46.7583 47.1916 46.6643 47.1558 46.5766C47.12 46.4889 47.067 46.4093 46.9999 46.3425C46.9328 46.2757 46.853 46.223 46.7652 46.1875C46.6774 46.1521 46.5834 46.1346 46.4887 46.1361C46.3013 46.1391 46.1227 46.2162 45.9921 46.3506C45.8615 46.4849 45.7894 46.6656 45.7917 46.853V52.5536H30.2083V46.853C30.2095 46.7583 30.1916 46.6643 30.1558 46.5766C30.12 46.4889 30.067 46.4093 29.9999 46.3425C29.9328 46.2757 29.853 46.223 29.7652 46.1875C29.6774 46.1521 29.5834 46.1346 29.4887 46.1361C29.3013 46.1391 29.1227 46.2162 28.9921 46.3506C28.8615 46.4849 28.7894 46.6656 28.7917 46.853V52.5536H24.5417V46.8643C24.5417 41.726 28.6372 37.6149 33.75 37.6149Z" fill="white"/>
</svg>
